# xmcd
#
# Track frame offsets: 
#        150
#        18838
#        36688
#        45215
#        64663
#        79909
#        89141
#        109366
#        125920
#        144106
#        150415
#        171205
#        183748
#        207176
#        214944
#
# Disc length: 3040 seconds
#
# Revision: 0
# Processed by: cddbd v1.5.2PL0 Copyright (c) Steve Scherf et al.
# Submitted via: ExactAudioCopy v1.0b1
#
DISCID=d80bde0f
DTITLE=CunninLynguists - Oneirology
DYEAR=2011
DGENRE=Hip-Hop
TTITLE0=Predormitum (Prologue)
TTITLE1=Darkness (Dream On) (feat. Anna Wise of Sonnymoon)
TTITLE2=Phantasmata
TTITLE3=Hard As They Come (Act I) (feat. Freddie Gibbs)
TTITLE4=Murder (Act II) (feat. Big K.R.I.T.)
TTITLE5=My Habit (I Haven't Changed)
TTITLE6=Get Ignorant
TTITLE7=Shattered Dreams
TTITLE8=Stars Shine Brightest (In The Darkest Of Night) (feat. Rick Wa
TTITLE8=rren)
TTITLE9=So As Not To Wake You (Interlude)
TTITLE10=Enemies With Benefits (feat. Tonedeff)
TTITLE11=Looking Back (feat. Anna Wise of Sonnymoon)
TTITLE12=Dreams (feat. Tunji and B.J. The Chicago Kid)
TTITLE13=Hypnopomp (Epilogue) (feat. Bianca Spriggs)
TTITLE14=Embers
EXTD=
EXTT0=
EXTT1=
EXTT2=
EXTT3=
EXTT4=
EXTT5=
EXTT6=
EXTT7=
EXTT8=
EXTT9=
EXTT10=
EXTT11=
EXTT12=
EXTT13=
EXTT14=
PLAYORDER=
